<svg width="24" height="18" viewBox="0 0 24 18" fill="none" xmlns="http://www.w3.org/2000/svg">
<path d="M12 5.24993C11.2584 5.24993 10.5333 5.46986 9.91665 5.88192C9.29996 6.29398 8.81932 6.87965 8.53549 7.56487C8.25166 8.25009 8.1774 9.00409 8.32209 9.73152C8.46679 10.4589 8.82394 11.1271 9.34839 11.6516C9.87283 12.176 10.541 12.5332 11.2684 12.6779C11.9959 12.8226 12.7499 12.7483 13.4351 12.4645C14.1203 12.1807 14.706 11.7 15.118 11.0833C15.5301 10.4666 15.75 9.74161 15.75 8.99993C15.75 8.00537 15.3549 7.05154 14.6517 6.34828C13.9484 5.64502 12.9946 5.24993 12 5.24993ZM12 11.2499C11.555 11.2499 11.12 11.118 10.75 10.8707C10.38 10.6235 10.0916 10.2721 9.92131 9.86097C9.75101 9.44983 9.70645 8.99744 9.79327 8.56098C9.88009 8.12452 10.0944 7.72361 10.409 7.40894C10.7237 7.09427 11.1246 6.87998 11.5611 6.79316C11.9975 6.70635 12.4499 6.75091 12.8611 6.9212C13.2722 7.0915 13.6236 7.37989 13.8708 7.7499C14.1181 8.11991 14.25 8.55492 14.25 8.99993C14.2476 9.59591 14.0097 10.1668 13.5883 10.5882C13.1669 11.0096 12.596 11.2475 12 11.2499ZM6.46879 6.66556C6.15937 7.40492 6.00003 8.19843 6.00003 8.99993C6.00003 9.80143 6.15937 10.5949 6.46879 11.3343C6.77222 12.0472 7.20804 12.6962 7.75316 13.2468C7.82375 13.3158 7.87983 13.3982 7.91813 13.4891C7.95642 13.5801 7.97614 13.6778 7.97614 13.7765C7.97614 13.8752 7.95642 13.9729 7.91813 14.0638C7.87983 14.1548 7.82375 14.2372 7.75316 14.3062C7.61316 14.4441 7.42465 14.5215 7.22816 14.5218C7.02901 14.521 6.83776 14.4438 6.69379 14.3062C6.01008 13.6203 5.46568 12.8085 5.09066 11.9156C4.70081 10.9929 4.49994 10.0015 4.49994 8.99993C4.49994 7.99834 4.70081 7.00691 5.09066 6.08431C5.46568 5.1914 6.01008 4.37958 6.69379 3.69368C6.83439 3.55342 7.02488 3.47465 7.22348 3.47465C7.42207 3.47465 7.61256 3.55342 7.75316 3.69368C7.82375 3.76266 7.87983 3.84505 7.91813 3.93601C7.95642 4.02698 7.97614 4.12468 7.97614 4.22337C7.97614 4.32206 7.95642 4.41976 7.91813 4.51072C7.87983 4.60168 7.82375 4.68408 7.75316 4.75306C7.20804 5.30367 6.77222 5.95263 6.46879 6.66556ZM18.9094 11.9156C18.5344 12.8085 17.99 13.6203 17.3063 14.3062C17.1623 14.4438 16.9711 14.521 16.7719 14.5218C16.5754 14.5215 16.3869 14.4441 16.2469 14.3062C16.1763 14.2372 16.1202 14.1548 16.082 14.0638C16.0437 13.9729 16.0239 13.8752 16.0239 13.7765C16.0239 13.6778 16.0437 13.5801 16.082 13.4891C16.1202 13.3982 16.1763 13.3158 16.2469 13.2468C16.792 12.6962 17.2278 12.0472 17.5313 11.3343C17.8407 10.5949 18 9.80143 18 8.99993C18 8.19843 17.8407 7.40492 17.5313 6.66556C17.2278 5.95263 16.792 5.30367 16.2469 4.75306C16.1763 4.68408 16.1202 4.60168 16.082 4.51072C16.0437 4.41976 16.0239 4.32206 16.0239 4.22337C16.0239 4.12468 16.0437 4.02698 16.082 3.93601C16.1202 3.84505 16.1763 3.76266 16.2469 3.69368C16.3875 3.55342 16.578 3.47465 16.7766 3.47465C16.9752 3.47465 17.1657 3.55342 17.3063 3.69368C17.99 4.37958 18.5344 5.1914 18.9094 6.08431C19.2993 7.00691 19.5001 7.99834 19.5001 8.99993C19.5001 10.0015 19.2993 10.9929 18.9094 11.9156ZM5.10941 15.8906C5.25025 16.0328 5.32926 16.2248 5.32926 16.4249C5.32926 16.6251 5.25025 16.8171 5.10941 16.9593C4.96545 17.0969 4.77419 17.1741 4.57504 17.1749C4.37625 17.1722 4.18565 17.0953 4.04066 16.9593C3.01717 15.9296 2.19944 14.7141 1.63129 13.3781C1.0496 11.9917 0.75 10.5034 0.75 8.99993C0.75 7.4965 1.0496 6.00814 1.63129 4.62181C2.19944 3.28574 3.01717 2.07028 4.04066 1.04056C4.18638 0.920959 4.37138 0.85984 4.55967 0.869088C4.74796 0.878335 4.92608 0.957288 5.05938 1.09059C5.19268 1.22389 5.27163 1.40201 5.28088 1.5903C5.29013 1.77859 5.22901 1.96358 5.10941 2.10931C4.20174 3.0124 3.48177 4.0862 2.99102 5.26883C2.50027 6.45146 2.24844 7.71952 2.25004 8.99993C2.24844 10.2803 2.50027 11.5484 2.99102 12.731C3.48177 13.9137 4.20174 14.9875 5.10941 15.8906ZM23.25 8.99993C23.2513 10.5035 22.9517 11.9921 22.3688 13.3781C21.8006 14.7141 20.9829 15.9296 19.9594 16.9593C19.8144 17.0953 19.6238 17.1722 19.425 17.1749C19.2259 17.1741 19.0346 17.0969 18.8907 16.9593C18.7498 16.8171 18.6708 16.6251 18.6708 16.4249C18.6708 16.2248 18.7498 16.0328 18.8907 15.8906C19.7983 14.9875 20.5183 13.9137 21.0091 12.731C21.4998 11.5484 21.7516 10.2803 21.75 8.99993C21.7516 7.71952 21.4998 6.45146 21.0091 5.26883C20.5183 4.0862 19.7983 3.0124 18.8907 2.10931C18.8087 2.04206 18.7418 1.95841 18.6941 1.86372C18.6465 1.76904 18.6192 1.66544 18.614 1.55957C18.6088 1.4537 18.6258 1.34791 18.6639 1.24901C18.7021 1.15012 18.7605 1.06031 18.8355 0.985355C18.9104 0.910404 19.0002 0.851974 19.0991 0.813825C19.198 0.775676 19.3038 0.758654 19.4097 0.763854C19.5155 0.769053 19.6192 0.79636 19.7138 0.844016C19.8085 0.891671 19.8922 0.958621 19.9594 1.04056C20.9829 2.07028 21.8006 3.28574 22.3688 4.62181C22.9517 6.00778 23.2513 7.49638 23.25 8.99993Z" fill="white"/>
</svg>
