<svg width="24" height="24" viewBox="0 0 24 24" fill="#000000" xmlns="http://www.w3.org/2000/svg">
  <path d="M21.25 7.49998C21.4312 7.49998 21.6063 7.56562 21.7429 7.68474C21.8795 7.80387 21.9684 7.96842 21.993 8.14798L22 8.24998L22 16.75C22.0001 17.5801 21.6824 18.3788 21.1123 18.9822C20.5422 19.5856 19.7628 19.948 18.934 19.995L18.75 20L6.061 20L6.781 20.72C6.90787 20.8471 6.98491 21.0155 6.99812 21.1946C7.01134 21.3737 6.95984 21.5516 6.853 21.696L6.78 21.78C6.65301 21.907 6.48466 21.9842 6.30555 21.9976C6.12644 22.011 5.94847 21.9597 5.804 21.853L5.72 21.78L3.72 19.78L3.656 19.708C3.65365 19.7047 3.65132 19.7013 3.649 19.698L3.719 19.78C3.60494 19.665 3.53098 19.5163 3.50811 19.356C3.48523 19.1957 3.51465 19.0323 3.592 18.89C3.62665 18.8277 3.66972 18.7705 3.72 18.72L5.72 16.72C5.854 16.587 6.03321 16.5095 6.22186 16.5028C6.41051 16.4962 6.59473 16.5609 6.73775 16.6841C6.88077 16.8073 6.97207 16.9799 6.99344 17.1675C7.0148 17.3551 6.96465 17.5438 6.853 17.696L6.78 17.78L6.06 18.5L18.75 18.5C19.1893 18.4999 19.6126 18.3346 19.9357 18.0369C20.2588 17.7392 20.4581 17.3309 20.494 16.893L20.5 16.75L20.5 8.24998C20.5 8.05106 20.579 7.8603 20.7197 7.71965C20.8603 7.57899 21.0511 7.49998 21.25 7.49998V7.49998ZM18.196 2.14698L18.28 2.21998L20.28 4.21998C20.3056 4.24524 20.3293 4.27231 20.351 4.30098L20.281 4.21998C20.4086 4.34666 20.4862 4.51519 20.4994 4.69452C20.5126 4.87385 20.4606 5.05193 20.353 5.19598C20.3322 5.22414 20.3094 5.25087 20.285 5.27598L20.28 5.27998L18.28 7.27998C18.146 7.41293 17.9668 7.49047 17.7781 7.49712C17.5895 7.50376 17.4053 7.43902 17.2622 7.31582C17.1192 7.19261 17.0279 7.02001 17.0066 6.83246C16.9852 6.6449 17.0353 6.45619 17.147 6.30398L17.22 6.21998L17.938 5.49998L5.25 5.49998C4.81081 5.49999 4.38768 5.66515 4.06461 5.96266C3.74154 6.26017 3.54214 6.66828 3.506 7.10598L3.5 7.24998L3.5 15.75C3.49994 15.94 3.42776 16.1229 3.29803 16.2618C3.1683 16.4006 2.9907 16.4851 2.80112 16.498C2.61154 16.511 2.42411 16.4515 2.2767 16.3315C2.12929 16.2116 2.0329 16.0402 2.007 15.852L2 15.75L2 7.24998C1.99995 6.41984 2.31755 5.62115 2.88767 5.01775C3.45779 4.41434 4.23719 4.05198 5.066 4.00498L5.25 3.99998L17.939 3.99998L17.219 3.27998C17.0921 3.15286 17.0151 2.98444 17.0019 2.80534C16.9887 2.62623 17.0402 2.44833 17.147 2.30398L17.22 2.21998C17.347 2.09296 17.5153 2.01573 17.6945 2.00233C17.8736 1.98894 18.0515 2.04026 18.196 2.14698V2.14698ZM12 7.99998C13.0609 7.99998 14.0783 8.4214 14.8284 9.17155C15.5786 9.92169 16 10.9391 16 12C16 13.0608 15.5786 14.0783 14.8284 14.8284C14.0783 15.5785 13.0609 16 12 16C10.9391 16 9.92172 15.5785 9.17157 14.8284C8.42143 14.0783 8 13.0608 8 12C8 10.9391 8.42143 9.92169 9.17157 9.17155C9.92172 8.4214 10.9391 7.99998 12 7.99998V7.99998ZM12 9.49998C11.337 9.49998 10.7011 9.76337 10.2322 10.2322C9.76339 10.7011 9.5 11.3369 9.5 12C9.5 12.663 9.76339 13.2989 10.2322 13.7677C10.7011 14.2366 11.337 14.5 12 14.5C12.663 14.5 13.2989 14.2366 13.7678 13.7677C14.2366 13.2989 14.5 12.663 14.5 12C14.5 11.3369 14.2366 10.7011 13.7678 10.2322C13.2989 9.76337 12.663 9.49998 12 9.49998V9.49998Z" />
</svg>

