<svg width="24" height="24" viewBox="0 0 24 24" fill="#000000" xmlns="http://www.w3.org/2000/svg">
  <path d="M22.8765 6.85134C22.7629 6.7854 22.6339 6.75046 22.5025 6.75002C22.3712 6.74957 22.242 6.78364 22.1279 6.84881L18 9.20756V8.625C17.9989 7.63079 17.6034 6.67762 16.9004 5.97461C16.1974 5.2716 15.2442 4.87614 14.25 4.875H2.25C1.85231 4.87545 1.47104 5.03363 1.18983 5.31483C0.908625 5.59604 0.750447 5.97731 0.75 6.375V15.375C0.751141 16.3692 1.1466 17.3224 1.84961 18.0254C2.55262 18.7284 3.50579 19.1239 4.5 19.125H16.5C16.8977 19.1246 17.279 18.9664 17.5602 18.6852C17.8414 18.404 17.9996 18.0227 18 17.625V14.7924L22.1279 17.1512C22.242 17.2164 22.3711 17.2504 22.5025 17.25C22.6339 17.2496 22.7628 17.2146 22.8765 17.1487C22.9901 17.0827 23.0844 16.9881 23.1499 16.8743C23.2155 16.7604 23.25 16.6314 23.25 16.5V7.5C23.25 7.36864 23.2155 7.23957 23.15 7.12573C23.0844 7.01189 22.9901 6.91727 22.8765 6.85134ZM16.5 17.625H4.5C3.90347 17.6243 3.33156 17.3871 2.90975 16.9653C2.48794 16.5434 2.25067 15.9715 2.25 15.375V6.375H14.25C14.8465 6.37567 15.4184 6.61294 15.8403 7.03475C16.2621 7.45656 16.4993 8.02847 16.5 8.625L16.5002 10.5112V10.5189L16.5005 13.4767C16.5003 13.4846 16.5005 13.4924 16.5005 13.5002L16.5009 17.625H16.5ZM21.75 15.2077L18 13.0647V10.9353L21.75 8.79234V15.2077Z" />
</svg>
