<svg width="24" height="24" viewBox="0 0 24 24" fill="#000000" xmlns="http://www.w3.org/2000/svg">
  <path d="M22.8765 6.85129C22.7629 6.78535 22.6339 6.75041 22.5025 6.74997C22.3712 6.74952 22.242 6.78359 22.1279 6.84876L18 9.20751V8.62495C17.9989 7.63074 17.6034 6.67758 16.9004 5.97456C16.1974 5.27155 15.2442 4.87609 14.25 4.87495H10.3953C10.1964 4.87495 10.0056 4.95397 9.86495 5.09462C9.7243 5.23527 9.64528 5.42604 9.64528 5.62495C9.64528 5.82386 9.7243 6.01463 9.86495 6.15528C10.0056 6.29593 10.1964 6.37495 10.3953 6.37495H14.25C14.8465 6.37562 15.4184 6.61289 15.8403 7.0347C16.2621 7.45651 16.4993 8.02842 16.5 8.62495V13.5C16.5002 13.5304 16.5022 13.5609 16.5061 13.5911C16.507 13.599 16.5084 13.607 16.5098 13.6149C16.5133 13.6381 16.5179 13.661 16.5235 13.6833C16.5254 13.6905 16.5271 13.6978 16.5292 13.7049C16.5454 13.7624 16.5685 13.8177 16.598 13.8697C16.6015 13.876 16.6055 13.8819 16.6092 13.8881C16.6211 13.9076 16.6338 13.9266 16.6472 13.9449C16.6522 13.9515 16.6569 13.9582 16.6621 13.9648C16.6801 13.9877 16.6994 14.0096 16.7198 14.0304C16.7209 14.0315 16.7222 14.0325 16.7233 14.0336C16.7434 14.0532 16.7645 14.0716 16.7866 14.0889C16.7932 14.094 16.7998 14.0989 16.8066 14.1039C16.8261 14.1182 16.8462 14.1316 16.867 14.144C16.8708 14.1463 16.8742 14.149 16.8779 14.1511L22.1279 17.1511C22.242 17.2163 22.3711 17.2504 22.5025 17.2499C22.6339 17.2495 22.7628 17.2146 22.8765 17.1486C22.9901 17.0827 23.0844 16.9881 23.1499 16.8742C23.2155 16.7604 23.25 16.6313 23.25 16.5V7.49995C23.25 7.36859 23.2155 7.23952 23.15 7.12568C23.0844 7.01184 22.9901 6.91722 22.8765 6.85129ZM21.75 15.2076L18 13.0647V10.9352L21.75 8.79229V15.2076ZM3.82781 1.74539C3.69399 1.59819 3.50718 1.51019 3.30848 1.50073C3.10977 1.49127 2.91545 1.56113 2.76825 1.69495C2.62105 1.82877 2.53305 2.01558 2.52359 2.21429C2.51413 2.41299 2.58399 2.60732 2.71781 2.75451L4.64531 4.87495H2.25C1.85231 4.8754 1.47104 5.03358 1.18983 5.31478C0.908625 5.59599 0.750447 5.97726 0.75 6.37495V15.375C0.751141 16.3692 1.1466 17.3223 1.84961 18.0253C2.55262 18.7284 3.50579 19.1238 4.5 19.125H16.5C16.806 19.1251 17.1045 19.031 17.3552 18.8556L20.445 22.2545C20.5113 22.3274 20.5912 22.3865 20.6803 22.4285C20.7694 22.4705 20.8659 22.4945 20.9643 22.4992C21.0627 22.5039 21.1611 22.4891 21.2538 22.4558C21.3465 22.4225 21.4317 22.3712 21.5046 22.305C21.5774 22.2387 21.6366 22.1587 21.6785 22.0696C21.7205 21.9805 21.7445 21.884 21.7492 21.7856C21.7539 21.6872 21.7392 21.5889 21.7058 21.4962C21.6725 21.4035 21.6213 21.3183 21.555 21.2454L3.82781 1.74539ZM4.5 17.625C3.90347 17.6243 3.33156 17.387 2.90975 16.9652C2.48794 16.5434 2.25067 15.9715 2.25 15.375V6.37495H6.00909L16.2363 17.625H4.5Z" />
</svg>

