<svg width="16" height="16" viewBox="0 0 16 16" fill="#000000" xmlns="http://www.w3.org/2000/svg">
<path d="M15.2804 14.2197C15.421 14.3603 15.5 14.5511 15.5 14.75C15.5 14.9489 15.421 15.1397 15.2804 15.2804C15.1397 15.421 14.9489 15.5 14.75 15.5C14.5511 15.5 14.3603 15.421 14.2197 15.2804L8.00002 9.06062L1.78036 15.2804C1.63971 15.421 1.44894 15.5 1.25002 15.5C1.0511 15.5 0.860331 15.421 0.719676 15.2804C0.57902 15.1397 0.5 14.9489 0.5 14.75C0.5 14.5511 0.57902 14.3603 0.719676 14.2197L6.93943 8.00002L0.719676 1.78036C0.57902 1.63971 0.5 1.44894 0.5 1.25002C0.5 1.0511 0.57902 0.860331 0.719676 0.719676C0.860331 0.57902 1.0511 0.5 1.25002 0.5C1.44894 0.5 1.63971 0.57902 1.78036 0.719676L8.00002 6.93943L14.2197 0.719676C14.3603 0.57902 14.5511 0.5 14.75 0.5C14.9489 0.5 15.1397 0.57902 15.2804 0.719676C15.421 0.860331 15.5 1.0511 15.5 1.25002C15.5 1.44894 15.421 1.63971 15.2804 1.78036L9.06062 8.00002L15.2804 14.2197Z"/>
</svg>
