<svg width="24" height="24" viewBox="0 0 24 24" fill="#000000" xmlns="http://www.w3.org/2000/svg">
  <path d="M12.75 12C12.75 11.5858 12.4142 11.25 12 11.25C11.5858 11.25 11.25 11.5858 11.25 12H12.75ZM11.25 12.75C11.25 13.1642 11.5858 13.5 12 13.5C12.4142 13.5 12.75 13.1642 12.75 12.75H11.25ZM17.25 12.0001C17.25 11.5859 16.9142 11.2501 16.5 11.2501C16.0858 11.2501 15.75 11.5859 15.75 12.0001H17.25ZM15.75 12.75C15.75 13.1642 16.0858 13.5 16.5 13.5C16.9142 13.5 17.25 13.1642 17.25 12.75H15.75ZM3.75 12.0001C3.75 11.5859 3.41421 11.2501 3 11.2501C2.58579 11.2501 2.25 11.5859 2.25 12.0001H3.75ZM2.25 12.75C2.25 13.1642 2.58579 13.5 3 13.5C3.41421 13.5 3.75 13.1642 3.75 12.75H2.25ZM21.75 11.9999C21.75 11.5857 21.4142 11.2499 21 11.2499C20.5858 11.2499 20.25 11.5857 20.25 11.9999H21.75ZM20.25 12.75C20.25 13.1642 20.5858 13.5 21 13.5C21.4142 13.5 21.75 13.1642 21.75 12.75H20.25ZM8.25 12C8.25 11.5858 7.91421 11.25 7.5 11.25C7.08579 11.25 6.75 11.5858 6.75 12H8.25ZM6.75 12.75C6.75 13.1642 7.08579 13.5 7.5 13.5C7.91421 13.5 8.25 13.1642 8.25 12.75H6.75ZM11.25 12V12.75H12.75V12H11.25ZM15.75 12.0001V12.75H17.25V12.0001H15.75ZM2.25 12.0001V12.75H3.75V12.0001H2.25ZM20.25 11.9999V12.75H21.75V11.9999H20.25ZM6.75 12V12.75H8.25V12H6.75Z" />
</svg>
