<svg width="24" height="24" viewBox="0 0 24 24" fill="#000000" xmlns="http://www.w3.org/2000/svg">
  <path d="M12 16.5C13.193 16.4987 14.3369 16.0241 15.1805 15.1805C16.0241 14.3369 16.4986 13.1931 16.5 12V6C16.5 4.80653 16.0259 3.66193 15.182 2.81802C14.338 1.97411 13.1934 1.5 12 1.5C10.8065 1.5 9.66191 1.97411 8.818 2.81802C7.97408 3.66193 7.49998 4.80653 7.49998 6V12C7.50132 13.1931 7.97585 14.3369 8.81948 15.1805C9.6631 16.0241 10.8069 16.4987 12 16.5ZM8.99998 6C8.99998 5.20435 9.31605 4.44129 9.87865 3.87868C10.4413 3.31607 11.2043 3 12 3C12.7956 3 13.5587 3.31607 14.1213 3.87868C14.6839 4.44129 15 5.20435 15 6V12C15 12.7956 14.6839 13.5587 14.1213 14.1213C13.5587 14.6839 12.7956 15 12 15C11.2043 15 10.4413 14.6839 9.87865 14.1213C9.31605 13.5587 8.99998 12.7956 8.99998 12V6ZM19.4542 12.8324C19.2665 14.5387 18.4979 16.1287 17.2773 17.3357C16.0567 18.5427 14.4583 19.2935 12.75 19.4622V21.75C12.75 21.9489 12.671 22.1397 12.5303 22.2803C12.3897 22.421 12.1989 22.5 12 22.5C11.8011 22.5 11.6103 22.421 11.4696 22.2803C11.329 22.1397 11.25 21.9489 11.25 21.75V19.4622C9.54167 19.2935 7.94326 18.5427 6.72267 17.3357C5.50208 16.1287 4.73349 14.5387 4.54573 12.8324C4.52471 12.6351 4.58272 12.4376 4.70705 12.2829C4.83138 12.1283 5.0119 12.0293 5.2091 12.0075C5.4063 11.9857 5.60409 12.0429 5.75919 12.1666C5.91429 12.2904 6.01405 12.4705 6.03663 12.6676C6.20114 14.1341 6.90023 15.4885 8.00031 16.4721C9.10039 17.4556 10.5243 17.9994 12 17.9994C13.4756 17.9994 14.8996 17.4556 15.9996 16.4721C17.0997 15.4885 17.7988 14.1341 17.9633 12.6676C17.9859 12.4705 18.0857 12.2904 18.2408 12.1666C18.3959 12.0429 18.5937 11.9857 18.7909 12.0075C18.988 12.0293 19.1686 12.1283 19.2929 12.2829C19.4172 12.4376 19.4752 12.6351 19.4542 12.8324Z" />
</svg>
