<svg width="24" height="24" viewBox="0 0 24 24" fill="#000000" xmlns="http://www.w3.org/2000/svg">
  <g clip-path="url(#clip0_413_19107)">
    <path d="M17.0893 2.95066C16.9501 2.81128 16.7848 2.70086 16.6027 2.62576C16.4207 2.55066 16.2255 2.51238 16.0286 2.51314L7.98084 2.51314C7.5844 2.51607 7.20503 2.67485 6.9247 2.95518C6.64437 3.23551 6.48558 3.61488 6.48266 4.01132L6.48266 11.7939C5.55458 12.2845 3.67191 13.6236 3.34708 16.6663C3.32251 16.8762 3.34284 17.0889 3.40673 17.2903C3.47062 17.4917 3.5766 17.6773 3.71764 17.8346C3.85869 17.992 4.03158 18.1175 4.22484 18.203C4.41811 18.2884 4.62733 18.3318 4.83863 18.3302L11.2556 18.3302L11.249 22.8844C11.25 23.0846 11.3299 23.2762 11.4714 23.4178C11.6129 23.5593 11.8046 23.6392 12.0047 23.6402C12.2041 23.6368 12.3944 23.5561 12.5354 23.4151C12.6764 23.2741 12.7571 23.0838 12.7604 22.8844L12.7538 18.3302L19.1443 18.3302C19.5416 18.3297 19.9228 18.1725 20.2049 17.8927L20.2779 17.8198C20.4177 17.6559 20.5213 17.4642 20.5819 17.2574C20.6424 17.0506 20.6586 16.8334 20.6292 16.6199C20.1983 13.5904 18.667 12.311 17.5268 11.7674V4.01132C17.5275 3.81439 17.4893 3.61926 17.4142 3.43721C17.3391 3.25516 17.2286 3.08979 17.0893 2.95066ZM16.022 12.2778C16.0241 12.4359 16.0749 12.5894 16.1674 12.7175C16.26 12.8456 16.3897 12.9421 16.539 12.9938C18.4217 13.6169 18.9786 15.672 19.1443 16.8321L4.83863 16.832C4.9911 15.3803 5.59435 14.4456 6.17772 13.8622C6.76108 13.2788 7.42399 13.0004 7.4704 12.9938C7.61972 12.9421 7.74947 12.8456 7.842 12.7175C7.93452 12.5894 7.98532 12.4359 7.98747 12.2778L7.98084 4.01132L16.0286 4.01132L16.022 12.2778Z" />
  </g>
  <defs>
    <clipPath id="clip0_413_19107">
      <rect width="24" height="24" fill="white"/>
    </clipPath>
  </defs></svg>
