<svg width="24" height="24" viewBox="0 0 24 24" fill="#000000" xmlns="http://www.w3.org/2000/svg">
  <path d="M20.9717 3.02826C20.7843 2.83958 20.5499 2.70444 20.2928 2.63685C20.0356 2.56926 19.7651 2.57169 19.5092 2.64388L2.04355 7.56576C1.75154 7.65098 1.4921 7.82244 1.29923 8.05766C1.10636 8.29288 0.989058 8.58089 0.962707 8.88393C0.936355 9.18697 1.00218 9.49091 1.15156 9.75589C1.30093 10.0209 1.52688 10.2345 1.7998 10.3689L9.83417 14.1658L13.631 22.2001C13.7529 22.455 13.9442 22.6704 14.1831 22.8213C14.4219 22.9722 14.6985 23.0526 14.981 23.0533H15.1123C15.4177 23.0297 15.7084 22.9127 15.9449 22.7182C16.1814 22.5236 16.3522 22.2609 16.4342 21.9658L21.356 4.49076C21.4282 4.23486 21.4307 3.9643 21.3631 3.70715C21.2955 3.44999 21.1604 3.2156 20.9717 3.02826ZM14.9904 21.5533L11.2967 13.7626L15.1685 9.89076C15.2438 9.82254 15.3045 9.73973 15.3468 9.64737C15.3891 9.555 15.4122 9.455 15.4147 9.35343C15.4172 9.25186 15.3991 9.15085 15.3613 9.05651C15.3236 8.96217 15.2671 8.87648 15.1953 8.80464C15.1234 8.7328 15.0378 8.6763 14.9434 8.63858C14.8491 8.60086 14.7481 8.5827 14.6465 8.5852C14.5449 8.5877 14.4449 8.61081 14.3526 8.65313C14.2602 8.69545 14.1774 8.75609 14.1092 8.83138L10.2373 12.7033L2.44667 9.00951L19.9123 4.08763L14.9904 21.5533Z" />
</svg>

