<svg width="24" height="24" viewBox="0 0 24 24" xmlns="http://www.w3.org/2000/svg">
  <path fill="url(#gradient)" d="M23.2478 12.0011C23.2505 12.9864 23.0578 13.9625 22.6807 14.8728C22.3036 15.7831 21.7497 16.6095 21.051 17.3043C20.9815 17.3747 20.8988 17.4306 20.8076 17.4688C20.7164 17.5071 20.6186 17.5269 20.5197 17.5272C20.4209 17.5275 20.3229 17.5082 20.2315 17.4705C20.1401 17.4328 20.057 17.3774 19.9871 17.3075C19.9172 17.2376 19.8618 17.1545 19.8241 17.0631C19.7864 16.9717 19.7672 16.8738 19.7675 16.7749C19.7678 16.676 19.7876 16.5782 19.8259 16.487C19.8642 16.3958 19.9201 16.3131 19.9904 16.2436C20.5476 15.6865 20.9895 15.0251 21.2911 14.2971C21.5926 13.5691 21.7478 12.7889 21.7478 12.001C21.7478 11.213 21.5926 10.4328 21.2911 9.70487C20.9895 8.97692 20.5476 8.31548 19.9904 7.75833C19.9201 7.68884 19.8642 7.60613 19.8259 7.51496C19.7876 7.42379 19.7678 7.32595 19.7675 7.22707C19.7672 7.1282 19.7864 7.03024 19.8241 6.93883C19.8618 6.84743 19.9172 6.76438 19.9871 6.69446C20.057 6.62454 20.1401 6.56914 20.2315 6.53143C20.3229 6.49373 20.4209 6.47447 20.5197 6.47477C20.6186 6.47506 20.7164 6.49491 20.8076 6.53316C20.8988 6.5714 20.9815 6.62731 21.051 6.69764C21.7497 7.39244 22.3036 8.21894 22.6807 9.12928C23.0578 10.0396 23.2506 11.0157 23.2478 12.0011ZM17.9978 12.0011C17.9987 12.2967 17.9408 12.5895 17.8277 12.8626C17.7146 13.1357 17.5484 13.3836 17.3388 13.592C17.2684 13.6615 17.2125 13.7442 17.1743 13.8354C17.136 13.9266 17.1162 14.0244 17.1159 14.1233C17.1156 14.2221 17.1348 14.3201 17.1725 14.4115C17.2102 14.5029 17.2656 14.586 17.3355 14.6559C17.4054 14.7258 17.4885 14.7812 17.5799 14.8189C17.6713 14.8566 17.7692 14.8759 17.8681 14.8756C17.967 14.8753 18.0648 14.8554 18.156 14.8172C18.2472 14.7789 18.3299 14.723 18.3994 14.6527C18.7476 14.3045 19.0239 13.8911 19.2123 13.4361C19.4008 12.9811 19.4978 12.4935 19.4978 12.001C19.4978 11.5085 19.4008 11.0209 19.2123 10.5659C19.0239 10.1109 18.7476 9.69749 18.3994 9.34927C18.2587 9.20861 18.0679 9.12959 17.869 9.1296C17.6701 9.12961 17.4793 9.20864 17.3386 9.34931C17.198 9.48998 17.119 9.68076 17.119 9.87969C17.119 10.0786 17.198 10.2694 17.3387 10.41C17.5483 10.6185 17.7144 10.8664 17.8276 11.1395C17.9407 11.4126 17.9985 11.7054 17.9977 12.001L17.9978 12.0011ZM20.055 19.7454C20.1888 19.8926 20.2587 20.0869 20.2492 20.2856C20.2398 20.4843 20.1518 20.6711 20.0046 20.805C19.9317 20.8712 19.8465 20.9225 19.7538 20.9558C19.6611 20.9891 19.5627 21.0039 19.4643 20.9992C19.2656 20.9897 19.0788 20.9017 18.945 20.7545L15 16.415V21.0011C15 21.1415 14.9606 21.279 14.8862 21.3981C14.8119 21.5172 14.7056 21.613 14.5795 21.6747C14.4534 21.7364 14.3125 21.7614 14.1728 21.747C14.0332 21.7325 13.9004 21.6792 13.7896 21.593L7.24266 16.5011H3C2.60231 16.5006 2.22104 16.3425 1.93983 16.0612C1.65863 15.78 1.50045 15.3988 1.5 15.0011L1.5 9.00108C1.50045 8.60339 1.65863 8.22212 1.93983 7.94091C2.22104 7.6597 2.60231 7.50152 3 7.50108L6.89644 7.50108L3.945 4.25452C3.81118 4.10732 3.74132 3.91299 3.75078 3.71429C3.76023 3.51558 3.84824 3.32877 3.99544 3.19495C4.14263 3.06113 4.33696 2.99127 4.53566 3.00073C4.73437 3.01019 4.92118 3.0982 5.055 3.24539L20.055 19.7454ZM3 15.0011H6.74944L6.74944 9.00108H3L3 15.0011ZM13.5 14.765L8.24944 8.98936L8.24944 15.3839L13.5 19.4676V14.765ZM10.975 6.49823L13.5 4.53464L13.5 10.0153C13.5 10.2142 13.579 10.4049 13.7197 10.5456C13.8603 10.6862 14.0511 10.7653 14.25 10.7653C14.4489 10.7653 14.6397 10.6862 14.7803 10.5456C14.921 10.4049 15 10.2142 15 10.0153L15 3.00108C15 2.86068 14.9606 2.72311 14.8863 2.60401C14.8119 2.4849 14.7056 2.38906 14.5795 2.32737C14.4534 2.26569 14.3125 2.24064 14.1729 2.25508C14.0332 2.26952 13.9004 2.32286 13.7896 2.40905L10.0542 5.31436C9.9007 5.43764 9.80182 5.61635 9.77892 5.81191C9.75602 6.00746 9.81094 6.20418 9.93182 6.3596C10.0527 6.51501 10.2299 6.61666 10.425 6.6426C10.6202 6.66854 10.8178 6.61668 10.975 6.49823Z" />
  <defs>
    <linearGradient id="gradient" x1="0" y1="0" x2="24" y2="0"
                    gradientUnits="userSpaceOnUse">
      <stop stop-color="#3E44FE"/>
      <stop offset="1" stop-color="#BB5CFF"/>
    </linearGradient>
  </defs>
</svg>
