<svg width="24" height="24" viewBox="0 0 24 24" xmlns="http://www.w3.org/2000/svg">
  <path fill="url(#gradient)" d="M23.2472 12C23.2499 12.9853 23.0572 13.9614 22.6801 14.8717C22.3031 15.7821 21.7492 16.6086 21.0506 17.3034C20.981 17.3731 20.8983 17.4283 20.8073 17.466C20.7163 17.5037 20.6187 17.5231 20.5202 17.5231C20.4217 17.5231 20.3242 17.5037 20.2332 17.466C20.1422 17.4283 20.0595 17.3731 19.9898 17.3034C19.9202 17.2338 19.8649 17.1511 19.8272 17.0601C19.7895 16.9691 19.7701 16.8716 19.7701 16.7731C19.7701 16.6746 19.7895 16.577 19.8272 16.486C19.8649 16.395 19.9202 16.3123 19.9898 16.2427C20.547 15.6855 20.989 15.0241 21.2905 14.2961C21.5921 13.5682 21.7473 12.7879 21.7473 12C21.7473 11.2121 21.5921 10.4318 21.2905 9.70388C20.989 8.97592 20.547 8.31449 19.9898 7.75735C19.8492 7.6167 19.7702 7.42592 19.7702 7.22701C19.7702 7.02809 19.8492 6.83732 19.9898 6.69666C20.1305 6.55601 20.3213 6.47699 20.5202 6.47699C20.7191 6.47699 20.9099 6.55601 21.0505 6.69666C21.7492 7.39148 22.303 8.21797 22.6801 9.12829C23.0572 10.0386 23.25 11.0147 23.2473 12H23.2472ZM15 3.00001L15 21C15 21.1404 14.9606 21.278 14.8862 21.397C14.8119 21.5161 14.7056 21.612 14.5795 21.6736C14.4534 21.7353 14.3125 21.7604 14.1728 21.7459C14.0332 21.7315 13.9004 21.6781 13.7896 21.5919L7.24266 16.5H3C2.60231 16.4996 2.22104 16.3414 1.93983 16.0602C1.65863 15.779 1.50045 15.3977 1.5 15L1.5 9.00001C1.50045 8.60232 1.65863 8.22105 1.93983 7.93984C2.22104 7.65863 2.60231 7.50045 3 7.50001L7.24266 7.50001L13.7896 2.40807C13.9004 2.32189 14.0332 2.26854 14.1728 2.2541C14.3125 2.23966 14.4534 2.2647 14.5795 2.32637C14.7056 2.38805 14.8119 2.48388 14.8862 2.60297C14.9606 2.72206 15 2.85962 15 3.00001ZM3 15H6.75L6.75 9.00001H3L3 15ZM13.5 4.53348L8.25 8.61676L8.25 15.3833L13.5 19.4665L13.5 4.53348ZM17.3381 9.34848C17.1975 9.48914 17.1185 9.6799 17.1185 9.87879C17.1186 10.0777 17.1976 10.2684 17.3382 10.4091C17.5472 10.618 17.7129 10.866 17.826 11.139C17.9391 11.412 17.9973 11.7045 17.9973 12C17.9973 12.2955 17.9391 12.5881 17.826 12.861C17.7129 13.134 17.5472 13.382 17.3382 13.5909C17.2679 13.6604 17.212 13.7431 17.1737 13.8343C17.1355 13.9255 17.1156 14.0233 17.1153 14.1222C17.115 14.2211 17.1342 14.319 17.1719 14.4104C17.2096 14.5018 17.265 14.5849 17.3349 14.6548C17.4049 14.7247 17.4879 14.7801 17.5793 14.8178C17.6707 14.8555 17.7687 14.8748 17.8675 14.8745C17.9664 14.8742 18.0643 14.8544 18.1554 14.8161C18.2466 14.7779 18.3293 14.722 18.3988 14.6516C18.7471 14.3034 19.0233 13.89 19.2118 13.4351C19.4002 12.9801 19.4973 12.4925 19.4973 12C19.4973 11.5075 19.4002 11.0199 19.2118 10.5649C19.0233 10.11 18.7471 9.69658 18.3988 9.34838C18.3292 9.27871 18.2465 9.22344 18.1555 9.18574C18.0645 9.14803 17.967 9.12862 17.8685 9.12862C17.77 9.12862 17.6724 9.14803 17.5814 9.18574C17.4904 9.22344 17.4078 9.27871 17.3381 9.34838V9.34848Z" />
  <defs>
    <linearGradient id="gradient" x1="0" y1="0" x2="24" y2="0"
                    gradientUnits="userSpaceOnUse">
      <stop stop-color="#3E44FE"/>
      <stop offset="1" stop-color="#BB5CFF"/>
    </linearGradient>
  </defs>
</svg>
