<svg width="24" height="24" viewBox="0 0 24 24" fill="#000000" xmlns="http://www.w3.org/2000/svg">
  <path d="M3.75406 22.3922C3.53374 22.3918 3.31619 22.3431 3.11675 22.2495C2.85673 22.1303 2.63665 21.9386 2.4829 21.6974C2.32916 21.4562 2.2483 21.1758 2.25003 20.8898V6C2.25047 5.60231 2.40865 5.22104 2.68986 4.93983C2.97107 4.65863 3.35234 4.50045 3.75003 4.5H20.25C20.6477 4.50045 21.029 4.65863 21.3102 4.93983C21.5914 5.22104 21.7496 5.60231 21.75 6V18C21.7496 18.3977 21.5914 18.779 21.3102 19.0602C21.029 19.3414 20.6477 19.4996 20.25 19.5H7.73431L4.71528 22.038C4.4468 22.2659 4.10625 22.3914 3.75406 22.3921V22.3922ZM3.75003 6V20.8898L6.76915 18.3519C7.03952 18.1248 7.38128 18.0002 7.7344 18H20.25V6H3.75003Z" />
</svg>
