<svg width="24" height="24" viewBox="0 0 24 24" fill="#000000" xmlns="http://www.w3.org/2000/svg">
<path d="M20.2501 2.99939H8.25009C8.05118 2.99939 7.86042 3.07841 7.71976 3.21906C7.57911 3.35971 7.50009 3.55048 7.50009 3.74939V7.49948H3.75C3.55109 7.49948 3.36032 7.5785 3.21967 7.71915C3.07902 7.85981 3 8.05057 3 8.24948V20.2495C3 20.4484 3.07902 20.6392 3.21967 20.7798C3.36032 20.9205 3.55109 20.9995 3.75 20.9995H15.75C15.9489 20.9995 16.1397 20.9205 16.2803 20.7798C16.421 20.6392 16.5 20.4484 16.5 20.2495V16.4995H20.2501C20.449 16.4995 20.6398 16.4205 20.7804 16.2798C20.9211 16.1392 21.0001 15.9484 21.0001 15.7495V3.74948C21.0001 3.55057 20.9211 3.35981 20.7804 3.21915C20.6398 3.0785 20.449 2.99948 20.2501 2.99948V2.99939ZM15 19.4995H4.5V8.99948H15V19.4995ZM19.5001 14.9995H16.5V8.24948C16.5 8.05057 16.421 7.85981 16.2803 7.71915C16.1397 7.5785 15.9489 7.49948 15.75 7.49948H9.00009V4.49948H19.5001V14.9995Z"/>
</svg>
