<svg width="24" height="24" viewBox="0 0 24 24" fill="#000000" xmlns="http://www.w3.org/2000/svg">
  <g clip-path="url(#clip0_132_9725)">
    <path d="M2.81378 10.3095C8.07744 5.04581 16.642 5.04581 21.9057 10.3095C22.8078 11.2134 23.35 12.4149 23.431 13.6895C23.5119 14.964 23.1261 16.2245 22.3456 17.2353C22.1451 17.4907 21.8674 17.6744 21.5539 17.7589C21.2404 17.8433 20.908 17.8241 20.6064 17.7039L16.1669 15.9282C15.9371 15.8366 15.7335 15.6894 15.5745 15.4998C15.4155 15.3102 15.3059 15.0842 15.2556 14.8419L14.6733 12.0542L14.6734 12.0539C13.163 11.5394 11.5242 11.5431 10.0161 12.0642L9.46259 14.831C9.41406 15.0758 9.30501 15.3046 9.14539 15.4965C8.98578 15.6884 8.78067 15.8373 8.54877 15.9296L4.11315 17.7039C3.81153 17.8241 3.47911 17.8434 3.1656 17.759C2.85209 17.6745 2.57435 17.4908 2.37394 17.2354C1.59338 16.2245 1.20752 14.9641 1.28847 13.6895C1.36941 12.415 1.91161 11.2134 2.81378 10.3095ZM21.1634 16.3111C21.7194 15.5893 21.9936 14.6899 21.9351 13.7807C21.8765 12.8714 21.489 12.0146 20.845 11.3701C18.5928 9.12302 15.5412 7.86103 12.3597 7.86103C9.17822 7.86103 6.12664 9.12302 3.87444 11.3701C3.23004 12.0155 2.84265 12.8735 2.78462 13.7837C2.72658 14.6938 3.00188 15.594 3.55909 16.3161L7.99159 14.5369L8.54452 11.7707C8.59518 11.5162 8.71103 11.2793 8.88075 11.0831C9.05046 10.8869 9.26822 10.7381 9.51271 10.6513C11.344 10.0155 13.3354 10.011 15.1695 10.6384C15.4134 10.7238 15.6311 10.8708 15.8014 11.0651C15.9718 11.2594 16.089 11.4945 16.1418 11.7475L16.7241 14.5354L21.1634 16.3111Z" />
  </g>
  <defs>
    <clipPath id="clip0_132_9725">
      <rect width="24" height="24" fill="white"/>
    </clipPath>
  </defs></svg>
