<svg width="24" height="24" viewBox="0 0 24 24" fill="#000000" xmlns="http://www.w3.org/2000/svg">
  <path d="M19.0031 5.8313C18.0934 4.92138 17.0112 4.20224 15.8199 3.71607C14.6286 3.22989 13.3522 2.98646 12.0656 3.00005H12C9.41414 3.00005 6.93419 4.02728 5.10571 5.85576C3.27723 7.68424 2.25 10.1642 2.25 12.7501V18.0001C2.25247 18.596 2.49031 19.1669 2.91174 19.5883C3.33316 20.0097 3.90402 20.2476 4.5 20.2501H6C6.59598 20.2476 7.16684 20.0097 7.58826 19.5883C8.00969 19.1669 8.24753 18.596 8.25 18.0001V14.2501C8.24753 13.6541 8.00969 13.0832 7.58826 12.6618C7.16684 12.2404 6.59598 12.0025 6 12.0001H3.7875C3.97132 9.93799 4.92541 8.02091 6.45962 6.63092C7.99383 5.24092 9.99548 4.48008 12.0656 4.50005H12.075C14.1439 4.48444 16.1432 5.24677 17.6765 6.63592C19.2097 8.02507 20.1651 9.93963 20.3531 12.0001H18.1406C17.5439 12.0001 16.9716 12.2371 16.5496 12.6591C16.1277 13.081 15.8906 13.6533 15.8906 14.2501V18.0001C15.8906 18.5968 16.1277 19.1691 16.5496 19.591C16.9716 20.013 17.5439 20.2501 18.1406 20.2501H19.6406C20.2366 20.2476 20.8075 20.0097 21.2289 19.5883C21.6503 19.1669 21.8882 18.596 21.8906 18.0001V12.7501C21.8923 11.4629 21.6378 10.1884 21.1421 9.00054C20.6464 7.81271 19.9193 6.73539 19.0031 5.8313ZM6 13.5001C6.19891 13.5001 6.38968 13.5791 6.53033 13.7197C6.67098 13.8604 6.75 14.0511 6.75 14.2501V18.0001C6.75 18.199 6.67098 18.3897 6.53033 18.5304C6.38968 18.671 6.19891 18.7501 6 18.7501H4.5C4.30109 18.7501 4.11032 18.671 3.96967 18.5304C3.82902 18.3897 3.75 18.199 3.75 18.0001V13.5001H6ZM20.3906 18.0001C20.3906 18.199 20.3116 18.3897 20.171 18.5304C20.0303 18.671 19.8395 18.7501 19.6406 18.7501H18.1406C17.9417 18.7501 17.7509 18.671 17.6103 18.5304C17.4696 18.3897 17.3906 18.199 17.3906 18.0001V14.2501C17.3906 14.0511 17.4696 13.8604 17.6103 13.7197C17.7509 13.5791 17.9417 13.5001 18.1406 13.5001H20.3906V18.0001Z" />
</svg>
