<svg width="20" height="20" viewBox="0 0 20 20" fill="#000000" xmlns="http://www.w3.org/2000/svg">
<path
    d="M10 0.25C8.07164 0.25 6.18657 0.821828 4.58319 1.89317C2.97982 2.96451 1.73013 4.48726 0.992179 6.26884C0.254225 8.05042 0.061142 10.0108 0.437348 11.9021C0.813554 13.7934 1.74215 15.5307 3.10571 16.8943C4.46928 18.2579 6.20656 19.1865 8.09787 19.5627C9.98919 19.9389 11.9496 19.7458 13.7312 19.0078C15.5127 18.2699 17.0355 17.0202 18.1068 15.4168C19.1782 13.8134 19.75 11.9284 19.75 10C19.7475 7.4149 18.7195 4.93639 16.8916 3.10845C15.0636 1.28051 12.5851 0.252482 10 0.25ZM10 18.25C8.36831 18.25 6.77326 17.7661 5.41655 16.8596C4.05984 15.9531 3.00242 14.6646 2.378 13.1571C1.75358 11.6496 1.5902 9.99085 1.90853 8.3905C2.22685 6.79016 3.01259 5.32015 4.16637 4.16637C5.32016 3.01259 6.79017 2.22685 8.39051 1.90852C9.99085 1.59019 11.6497 1.75357 13.1571 2.37799C14.6646 3.00242 15.9531 4.05984 16.8596 5.41655C17.7661 6.77325 18.25 8.3683 18.25 10C18.2475 12.1873 17.3775 14.2843 15.8309 15.8309C14.2843 17.3775 12.1873 18.2475 10 18.25ZM11.5 14.5C11.5 14.6989 11.421 14.8897 11.2803 15.0303C11.1397 15.171 10.9489 15.25 10.75 15.25H10C9.80109 15.25 9.61033 15.171 9.46967 15.0303C9.32902 14.8897 9.25 14.6989 9.25 14.5V10C9.05109 10 8.86033 9.92098 8.71967 9.78033C8.57902 9.63968 8.5 9.44891 8.5 9.25C8.5 9.05109 8.57902 8.86032 8.71967 8.71967C8.86033 8.57902 9.05109 8.5 9.25 8.5H10C10.1989 8.5 10.3897 8.57902 10.5303 8.71967C10.671 8.86032 10.75 9.05109 10.75 9.25V13.75C10.9489 13.75 11.1397 13.829 11.2803 13.9697C11.421 14.1103 11.5 14.3011 11.5 14.5ZM8.6875 5.875C8.6875 5.6525 8.75348 5.43499 8.8771 5.24998C9.00072 5.06498 9.17642 4.92078 9.38199 4.83564C9.58755 4.75049 9.81375 4.72821 10.032 4.77162C10.2502 4.81502 10.4507 4.92217 10.608 5.0795C10.7653 5.23684 10.8725 5.43729 10.9159 5.65552C10.9593 5.87375 10.937 6.09995 10.8519 6.30552C10.7667 6.51109 10.6225 6.68679 10.4375 6.8104C10.2525 6.93402 10.035 7 9.8125 7C9.51414 7 9.22799 6.88147 9.01701 6.6705C8.80603 6.45952 8.6875 6.17337 8.6875 5.875Z"/>
</svg>
