<svg width="14" height="16" viewBox="0 0 14 16" fill="none" xmlns="http://www.w3.org/2000/svg">
<path fill-rule="evenodd" clip-rule="evenodd" d="M7.75 1.25V14.75C7.75 15.1642 7.41421 15.5 7 15.5C6.58579 15.5 6.25 15.1642 6.25 14.75V1.25C6.25 0.835786 6.58579 0.5 7 0.5C7.41421 0.5 7.75 0.835786 7.75 1.25ZM10.75 4.25V11.75C10.75 12.1642 10.4142 12.5 10 12.5C9.58579 12.5 9.25 12.1642 9.25 11.75V4.25C9.25 3.83579 9.58579 3.5 10 3.5C10.4142 3.5 10.75 3.83579 10.75 4.25ZM4.75 11.75V4.25C4.75 3.83579 4.41421 3.5 4 3.5C3.58579 3.5 3.25 3.83579 3.25 4.25V11.75C3.25 12.1642 3.58579 12.5 4 12.5C4.41421 12.5 4.75 12.1642 4.75 11.75ZM13.75 6.5V9.5C13.75 9.91421 13.4142 10.25 13 10.25C12.5858 10.25 12.25 9.91421 12.25 9.5V6.5C12.25 6.08579 12.5858 5.75 13 5.75C13.4142 5.75 13.75 6.08579 13.75 6.5ZM1.75 9.5V6.5C1.75 6.08579 1.41421 5.75 1 5.75C0.585786 5.75 0.25 6.08579 0.25 6.5V9.5C0.25 9.91421 0.585786 10.25 1 10.25C1.41421 10.25 1.75 9.91421 1.75 9.5Z" fill="none"/></svg>
