<svg width="24" height="24" viewBox="0 0 24 24" fill="#000000" xmlns="http://www.w3.org/2000/svg">
  <path d="M20.0551 19.7454L5.05507 3.2454C4.92125 3.0982 4.73444 3.0102 4.53574 3.00074C4.33703 2.99128 4.14271 3.06114 3.99551 3.19496C3.84832 3.32878 3.76031 3.51559 3.75085 3.7143C3.74139 3.913 3.81126 4.10733 3.94507 4.25452L7.50007 8.16502V12C7.4999 12.8077 7.71721 13.6007 8.12918 14.2955C8.54115 14.9903 9.13259 15.5614 9.8414 15.9488C10.5502 16.3362 11.3503 16.5256 12.1575 16.4972C12.9648 16.4688 13.7495 16.2235 14.4293 15.7872L15.4489 16.9086C14.5966 17.5077 13.603 17.8746 12.5659 17.973C11.5289 18.0715 10.484 17.8983 9.53421 17.4703C8.58442 17.0423 7.76245 16.3744 7.14919 15.5323C6.53593 14.6902 6.15253 13.7029 6.03673 12.6676C6.01415 12.4704 5.91439 12.2903 5.75929 12.1666C5.60419 12.0429 5.40639 11.9857 5.2092 12.0075C5.012 12.0293 4.83148 12.1283 4.70714 12.2829C4.58281 12.4375 4.52481 12.6351 4.54582 12.8324C4.73359 14.5387 5.50218 16.1286 6.72277 17.3357C7.94336 18.5427 9.54176 19.2935 11.2501 19.4622V21.75C11.2501 21.9489 11.3291 22.1396 11.4697 22.2803C11.6104 22.4209 11.8012 22.5 12.0001 22.5C12.199 22.5 12.3898 22.4209 12.5304 22.2803C12.6711 22.1396 12.7501 21.9489 12.7501 21.75V19.4615C14.0953 19.3277 15.3789 18.8315 16.4644 18.0258L18.9451 20.7545C19.0789 20.9017 19.2657 20.9897 19.4644 20.9992C19.5628 21.0039 19.6611 20.9891 19.7538 20.9558C19.8465 20.9225 19.9318 20.8712 20.0046 20.805C20.0775 20.7387 20.1366 20.6587 20.1786 20.5696C20.2206 20.4805 20.2446 20.384 20.2493 20.2856C20.254 20.1872 20.2392 20.0889 20.2059 19.9962C20.1726 19.9035 20.1213 19.8183 20.0551 19.7454ZM12.0001 15C11.2047 14.999 10.4422 14.6827 9.87977 14.1203C9.31736 13.5579 9.00099 12.7953 9.00007 12V9.81502L13.3988 14.6536C12.9677 14.8812 12.4876 15.0001 12.0001 15ZM8.17085 3.63512C8.68549 2.80208 9.45778 2.15961 10.3706 1.80518C11.2834 1.45074 12.2868 1.40367 13.2288 1.67112C14.1708 1.93856 14.9998 2.50592 15.5901 3.28713C16.1805 4.06834 16.5 5.02077 16.5001 5.99996V11.6652C16.5001 11.8641 16.4211 12.0549 16.2804 12.1955C16.1398 12.3362 15.949 12.4152 15.7501 12.4152C15.5512 12.4152 15.3604 12.3362 15.2197 12.1955C15.0791 12.0549 15.0001 11.8641 15.0001 11.6652V5.99996C15 5.34707 14.7869 4.71203 14.3933 4.19119C13.9996 3.67034 13.4467 3.29213 12.8187 3.11392C12.1906 2.93571 11.5215 2.96724 10.9129 3.20373C10.3044 3.44021 9.78956 3.86875 9.4466 4.4243C9.34195 4.59348 9.17438 4.71415 8.98076 4.75978C8.78713 4.8054 8.58331 4.77224 8.41414 4.66759C8.24496 4.56293 8.12429 4.39536 8.07866 4.20174C8.03304 4.00811 8.0662 3.80429 8.17085 3.63512ZM17.5904 14.1844C17.7807 13.6973 17.9061 13.1873 17.9635 12.6676C17.9861 12.4704 18.0859 12.2903 18.2409 12.1666C18.396 12.0429 18.5938 11.9857 18.791 12.0075C18.9882 12.0293 19.1688 12.1283 19.2931 12.2829C19.4174 12.4375 19.4754 12.6351 19.4544 12.8324C19.3826 13.4829 19.2255 14.1212 18.9873 14.7308C18.9135 14.9142 18.7703 15.061 18.5888 15.1393C18.4074 15.2177 18.2024 15.2213 18.0183 15.1493C17.8342 15.0773 17.686 14.9355 17.6059 14.7549C17.5258 14.5742 17.5202 14.3692 17.5904 14.1844Z" />
</svg>
