<svg width="24" height="24" viewBox="0 0 24 24" fill="#000000" xmlns="http://www.w3.org/2000/svg">
  <path d="M19.5 3.75H4.5C3.90347 3.75067 3.33156 3.98794 2.90975 4.40975C2.48794 4.83156 2.25067 5.40347 2.25 6V16.5C2.25067 17.0965 2.48794 17.6684 2.90975 18.0903C3.33156 18.5121 3.90347 18.7493 4.5 18.75H19.5C20.0965 18.7493 20.6684 18.5121 21.0903 18.0903C21.5121 17.6684 21.7493 17.0965 21.75 16.5V6C21.7493 5.40347 21.5121 4.83156 21.0903 4.40975C20.6684 3.98794 20.0965 3.75067 19.5 3.75ZM20.25 16.5C20.2498 16.6988 20.1707 16.8895 20.0301 17.0301C19.8895 17.1707 19.6988 17.2498 19.5 17.25H4.5C4.30116 17.2498 4.11054 17.1707 3.96994 17.0301C3.82935 16.8895 3.75025 16.6988 3.75 16.5V6C3.75025 5.80116 3.82935 5.61054 3.96994 5.46994C4.11054 5.32935 4.30116 5.25025 4.5 5.25H19.5C19.6988 5.25025 19.8895 5.32935 20.0301 5.46994C20.1707 5.61054 20.2498 5.80116 20.25 6V16.5ZM15.75 21C15.75 21.1989 15.671 21.3897 15.5303 21.5303C15.3897 21.671 15.1989 21.75 15 21.75H9C8.80109 21.75 8.61032 21.671 8.46967 21.5303C8.32902 21.3897 8.25 21.1989 8.25 21C8.25 20.8011 8.32902 20.6103 8.46967 20.4697C8.61032 20.329 8.80109 20.25 9 20.25H15C15.1989 20.25 15.3897 20.329 15.5303 20.4697C15.671 20.6103 15.75 20.8011 15.75 21ZM15.416 10.626L10.916 7.626C10.803 7.55072 10.6718 7.5075 10.5362 7.50095C10.4006 7.4944 10.2658 7.52477 10.1461 7.58882C10.0264 7.65287 9.92638 7.74819 9.85662 7.86463C9.78686 7.98107 9.75001 8.11426 9.75 8.25V14.25C9.75001 14.3857 9.78686 14.5189 9.85662 14.6354C9.92638 14.7518 10.0264 14.8471 10.1461 14.9112C10.2658 14.9752 10.4006 15.0056 10.5362 14.9991C10.6718 14.9925 10.803 14.9493 10.916 14.874L15.416 11.874C15.5187 11.8055 15.6029 11.7127 15.6612 11.6039C15.7195 11.495 15.75 11.3734 15.75 11.25C15.75 11.1265 15.7195 11.0049 15.6612 10.8961C15.6029 10.7872 15.5187 10.6944 15.416 10.6259V10.626ZM11.25 12.8486V9.65137L13.6479 11.25L11.25 12.8486Z" />
</svg>
