<svg width="24" height="24" viewBox="0 0 24 24" fill="#000000" xmlns="http://www.w3.org/2000/svg">
  <path d="M22.2617 9.77518C22.2391 9.67091 22.1945 9.57267 22.1308 9.48702C22.0672 9.40137 21.9861 9.33028 21.8928 9.27849L19.6638 8.04118C19.5403 7.80189 19.4058 7.56848 19.2607 7.34171L19.3036 4.79049C19.3054 4.68379 19.2844 4.57793 19.242 4.47999C19.1996 4.38205 19.1368 4.29428 19.0578 4.22255C17.948 3.2132 16.6334 2.4554 15.2037 2.00096C15.1021 1.96846 14.9948 1.958 14.8888 1.97029C14.7829 1.98258 14.6807 2.01732 14.5893 2.07221L12.4031 3.38368C12.1342 3.3709 11.8648 3.37071 11.5958 3.38312L9.408 2.07033C9.31648 2.01542 9.2143 1.98065 9.10828 1.96837C9.00226 1.95608 8.89484 1.96655 8.79319 1.99908C7.3642 2.45555 6.05061 3.21517 4.94222 4.22602C4.86324 4.29776 4.80048 4.38551 4.75812 4.48344C4.71577 4.58136 4.69479 4.68719 4.69659 4.79387L4.73953 7.34293C4.594 7.56946 4.4591 7.80265 4.33528 8.04174L2.1044 9.28018C2.01111 9.33199 1.92994 9.40312 1.86633 9.4888C1.80271 9.57449 1.75811 9.67276 1.7355 9.77705C1.41626 11.2428 1.41728 12.7602 1.7385 14.2255C1.76113 14.3297 1.80575 14.428 1.86937 14.5136C1.93298 14.5992 2.01413 14.6703 2.1074 14.7221L4.3364 15.9594C4.45986 16.1987 4.59438 16.4321 4.73953 16.6589L4.69659 19.2101C4.6948 19.3168 4.7158 19.4226 4.75819 19.5206C4.80058 19.6185 4.86338 19.7063 4.9424 19.778C6.05218 20.7874 7.36683 21.5452 8.79647 21.9996C8.89806 22.0321 9.00542 22.0425 9.11137 22.0303C9.21732 22.018 9.31944 21.9832 9.4109 21.9284L11.5971 20.6168C11.8658 20.6295 12.1359 20.6297 12.4043 20.6174L14.5922 21.9301C14.6837 21.9851 14.7859 22.0198 14.8919 22.0321C14.9979 22.0444 15.1053 22.0339 15.207 22.0014C16.636 21.5449 17.9496 20.7853 19.058 19.7745C19.1369 19.7027 19.1997 19.615 19.242 19.517C19.2844 19.4191 19.3054 19.3133 19.3036 19.2066L19.2607 16.6576C19.4062 16.431 19.5411 16.1978 19.6649 15.9587L21.8958 14.7203C21.9891 14.6685 22.0702 14.5974 22.1339 14.5117C22.1975 14.426 22.2421 14.3277 22.2647 14.2234C22.5839 12.7577 22.5829 11.2403 22.2617 9.77499V9.77518ZM20.8636 13.5777L18.7339 14.76C18.5985 14.8352 18.4896 14.9504 18.4223 15.09C18.2674 15.4111 18.0887 15.7201 17.8876 16.0145C17.8 16.1427 17.7544 16.295 17.757 16.4503L17.798 18.8845C16.9886 19.5698 16.0633 20.105 15.0658 20.4651L12.9771 19.2118C12.8605 19.1418 12.7271 19.1049 12.5912 19.1049C12.5726 19.1049 12.554 19.1056 12.5353 19.107C12.1799 19.1334 11.8229 19.1331 11.4675 19.1061C11.3127 19.0945 11.158 19.1311 11.0248 19.2109L8.93719 20.4634C7.93903 20.1051 7.01285 19.5715 6.20222 18.8877L6.24328 16.4521C6.24587 16.2973 6.20044 16.1454 6.11325 16.0173C5.91265 15.7226 5.7344 15.4133 5.58 15.092C5.51272 14.952 5.40363 14.8364 5.26781 14.761L3.13931 13.5794C2.95054 12.5358 2.94962 11.4668 3.13659 10.4229L5.26631 9.24071C5.40174 9.16548 5.51057 9.05017 5.57784 8.91061C5.73278 8.58958 5.91153 8.28059 6.11259 7.98624C6.2002 7.85799 6.24584 7.7057 6.24319 7.5504L6.20222 5.11618C7.01162 4.43092 7.93685 3.89565 8.93437 3.53555L11.0231 4.7889C11.1561 4.8685 11.3103 4.90511 11.4649 4.89371C11.8203 4.86729 12.1773 4.86757 12.5327 4.89455C12.6875 4.90631 12.8422 4.86969 12.9754 4.78974L15.063 3.53715C16.0612 3.89552 16.9874 4.4292 17.798 5.11308L17.7569 7.54852C17.7543 7.70341 17.7997 7.8553 17.8869 7.98333C18.0875 8.27802 18.2658 8.58733 18.4202 8.90865C18.4874 9.04864 18.5965 9.1643 18.7323 9.23968L20.8609 10.4213C21.0496 11.4649 21.0506 12.5338 20.8636 13.5778V13.5777ZM12 6.75043C10.9616 6.75043 9.94661 7.05833 9.08325 7.63521C8.2199 8.21209 7.54699 9.03203 7.14963 9.99134C6.75227 10.9507 6.6483 12.0063 6.85088 13.0247C7.05345 14.0431 7.55346 14.9785 8.28769 15.7127C9.02191 16.447 9.95737 16.947 10.9758 17.1495C11.9942 17.3521 13.0498 17.2482 14.0091 16.8508C14.9684 16.4534 15.7883 15.7805 16.3652 14.9172C16.9421 14.0538 17.25 13.0388 17.25 12.0004C17.2484 10.6085 16.6948 9.27409 15.7106 8.28987C14.7263 7.30565 13.3919 6.75202 12 6.75043ZM12 15.7504C11.2583 15.7504 10.5333 15.5305 9.91661 15.1184C9.29993 14.7064 8.81928 14.1207 8.53545 13.4355C8.25162 12.7503 8.17736 11.9963 8.32205 11.2688C8.46675 10.5414 8.8239 9.87322 9.34835 9.34878C9.8728 8.82433 10.541 8.46718 11.2684 8.32248C11.9958 8.17779 12.7498 8.25205 13.4351 8.53588C14.1203 8.81971 14.706 9.30035 15.118 9.91704C15.5301 10.5337 15.75 11.2587 15.75 12.0004C15.7489 12.9946 15.3534 13.9478 14.6504 14.6508C13.9474 15.3539 12.9942 15.7493 12 15.7504Z" />
</svg>

