<svg width="17" height="14" viewBox="0 0 17 14" fill="none" xmlns="http://www.w3.org/2000/svg">
<path fill-rule="evenodd" clip-rule="evenodd" d="M7.23282 0.858623C7.84195 0.297153 8.79091 0.335791 9.35238 0.944924C9.57579 1.18729 9.71224 1.49545 9.74286 1.82107L9.74945 1.96156V12.0411C9.74945 12.8695 9.07788 13.5411 8.24945 13.5411C7.9203 13.5411 7.60166 13.4329 7.34167 13.2352L7.23398 13.1451L3.83005 10.0141L2.24091 10.0045C1.45354 9.99971 0.810878 9.38893 0.754081 8.61599L0.75 8.50451V5.49378C0.75 4.70301 1.36191 4.05515 2.13805 3.99789L2.25 3.99378H3.83152L7.23282 0.858623ZM13.2091 4.69567L13.2798 4.75806L14.2492 5.72734L15.2191 4.75806L15.2898 4.69567C15.584 4.4669 16.0094 4.4877 16.2798 4.75806C16.5501 5.02842 16.5709 5.45385 16.3422 5.74807L16.2798 5.81872L15.3097 6.78784L16.2798 7.75806C16.5727 8.05095 16.5727 8.52583 16.2798 8.81872C16.0094 9.08908 15.584 9.10988 15.2898 8.88111L15.2191 8.81872L14.2492 7.84834L13.2798 8.81872L13.2091 8.88111C12.9149 9.10988 12.4895 9.08908 12.2191 8.81872C11.9488 8.54836 11.928 8.12293 12.1567 7.82872L12.2191 7.75806L13.1887 6.78784L12.2191 5.81872C11.9262 5.52583 11.9262 5.05095 12.2191 4.75806C12.4895 4.4877 12.9149 4.4669 13.2091 4.69567ZM4.84815 5.0967L8.24945 1.96155V12.0411L4.84553 8.9101L4.73875 8.82068C4.48105 8.62444 4.16554 8.51611 3.83914 8.51413L2.25 8.5045V5.49377H3.83152L3.972 5.48718C4.29763 5.45656 4.60578 5.32011 4.84815 5.0967Z" fill="inhert"/>
</svg>
